<svg width="48" height="47" viewBox="0 0 48 47" fill="none" xmlns="http://www.w3.org/2000/svg">
<circle cx="35.5" cy="34.5" r="7.5" fill="white"/>
<rect x="5" y="4" width="27" height="38" fill="white"/>
<path d="M13.3834 11.2666V11.1832H13.7001V11.2666H13.3834Z" fill="#1F2130" stroke="#1F2130" stroke-width="1.3"/>
<mask id="path-4-inside-1" fill="white">
<path d="M17.7335 15.4666H16.7668V10.5332H17.7335V15.4666Z"/>
</mask>
<path d="M17.7335 15.4666H16.7668V10.5332H17.7335V15.4666Z" fill="#1F2130"/>
<path d="M17.7335 15.4666V16.7666H19.0335V15.4666H17.7335ZM16.7668 15.4666H15.4668V16.7666H16.7668V15.4666ZM16.7668 10.5332V9.2332H15.4668V10.5332H16.7668ZM17.7335 10.5332H19.0335V9.2332H17.7335V10.5332ZM17.7335 14.1666H16.7668V16.7666H17.7335V14.1666ZM18.0668 15.4666V10.5332H15.4668V15.4666H18.0668ZM16.7668 11.8332H17.7335V9.2332H16.7668V11.8332ZM16.4335 10.5332V15.4666H19.0335V10.5332H16.4335Z" fill="#1F2130" mask="url(#path-4-inside-1)"/>
<mask id="path-6-inside-2" fill="white">
<path d="M21.0335 13.2667H19.5334V14.7H21.3335V15.4334H18.5668V10.5H21.3335V11.2667H19.5334V12.5333H21.0335V13.2667Z"/>
</mask>
<path d="M21.0335 13.2667H19.5334V14.7H21.3335V15.4334H18.5668V10.5H21.3335V11.2667H19.5334V12.5333H21.0335V13.2667Z" fill="#1F2130"/>
<path d="M21.0335 13.2667V14.5667H22.3335V13.2667H21.0335ZM19.5334 13.2667V11.9667H18.2334V13.2667H19.5334ZM19.5334 14.7H18.2334V16H19.5334V14.7ZM21.3335 14.7H22.6335V13.4H21.3335V14.7ZM21.3335 15.4334V16.7334H22.6335V15.4334H21.3335ZM18.5668 15.4334H17.2668V16.7334H18.5668V15.4334ZM18.5668 10.5V9.2H17.2668V10.5H18.5668ZM21.3335 10.5H22.6335V9.2H21.3335V10.5ZM21.3335 11.2667V12.5667H22.6335V11.2667H21.3335ZM19.5334 11.2667V9.96668H18.2334V11.2667H19.5334ZM19.5334 12.5333H18.2334V13.8333H19.5334V12.5333ZM21.0335 12.5333H22.3335V11.2333H21.0335V12.5333ZM21.0335 11.9667H19.5334V14.5667H21.0335V11.9667ZM18.2334 13.2667V14.7H20.8334V13.2667H18.2334ZM19.5334 16H21.3335V13.4H19.5334V16ZM20.0335 14.7V15.4334H22.6335V14.7H20.0335ZM21.3335 14.1334H18.5668V16.7334H21.3335V14.1334ZM19.8668 15.4334V10.5H17.2668V15.4334H19.8668ZM18.5668 11.8H21.3335V9.2H18.5668V11.8ZM20.0335 10.5V11.2667H22.6335V10.5H20.0335ZM21.3335 9.96668H19.5334V12.5667H21.3335V9.96668ZM18.2334 11.2667V12.5333H20.8334V11.2667H18.2334ZM19.5334 13.8333H21.0335V11.2333H19.5334V13.8333ZM19.7335 12.5333V13.2667H22.3335V12.5333H19.7335Z" fill="#1F2130" mask="url(#path-6-inside-2)"/>
<mask id="path-8-inside-3" fill="white">
<path d="M24.9002 11.2667H23.7336V15.4667H22.7669V11.2667H21.6335V10.5H24.9002V11.2667Z"/>
</mask>
<path d="M24.9002 11.2667H23.7336V15.4667H22.7669V11.2667H21.6335V10.5H24.9002V11.2667Z" fill="#1F2130"/>
<path d="M23.7336 11.2667V9.96668H22.4336V11.2667H23.7336ZM23.7336 15.4667V16.7667H25.0336V15.4667H23.7336ZM22.7669 15.4667H21.4669V16.7667H22.7669V15.4667ZM22.7669 11.2667H24.0669V9.96668H22.7669V11.2667ZM21.6335 11.2667H20.3335V12.5667H21.6335V11.2667ZM21.6335 10.5V9.2H20.3335V10.5H21.6335ZM24.9002 10.5H26.2002V9.2H24.9002V10.5ZM24.9002 9.96668H23.7336V12.5667H24.9002V9.96668ZM22.4336 11.2667V15.4667H25.0336V11.2667H22.4336ZM23.7336 14.1667H22.7669V16.7667H23.7336V14.1667ZM24.0669 15.4667V11.2667H21.4669V15.4667H24.0669ZM22.7669 9.96668H21.6335V12.5667H22.7669V9.96668ZM22.9335 11.2667V10.5H20.3335V11.2667H22.9335ZM21.6335 11.8H24.9002V9.2H21.6335V11.8ZM23.6002 10.5V11.2667H26.2002V10.5H23.6002Z" fill="#1F2130" mask="url(#path-8-inside-3)"/>
<path d="M8.06677 19.9668H19.2335" stroke="#1F2130" stroke-width="1.3" stroke-miterlimit="10" stroke-linecap="round" stroke-linejoin="round"/>
<path d="M8.06677 25.4004H19.2335" stroke="#1F2130" stroke-width="1.3" stroke-miterlimit="10" stroke-linecap="round" stroke-linejoin="round"/>
<path d="M8.06677 30.8335H19.2335" stroke="#1F2130" stroke-width="1.3" stroke-miterlimit="10" stroke-linecap="round" stroke-linejoin="round"/>
<path d="M8.06677 36.2334H19.2335" stroke="#1F2130" stroke-width="1.3" stroke-miterlimit="10" stroke-linecap="round" stroke-linejoin="round"/>
<path d="M24.0333 3.73342V1.6001H12.2666V3.73342" stroke="#1F2130" stroke-width="1.3" stroke-miterlimit="10" stroke-linecap="round" stroke-linejoin="round"/>
<path d="M12.2666 3.7334C12.2666 5.96674 14.0666 7.76675 16.2999 7.76675H20C22.2333 7.76675 24.0333 5.96674 24.0333 3.7334" stroke="#1F2130" stroke-width="1.3" stroke-miterlimit="10" stroke-linecap="round" stroke-linejoin="round"/>
<path d="M23.2001 42.3001H4.46667V3.7334H12.2667" stroke="#1F2130" stroke-width="1.3" stroke-miterlimit="10" stroke-linecap="round" stroke-linejoin="round"/>
<path d="M24.0334 3.7334H32.2001V18.5334" stroke="#1F2130" stroke-width="1.3" stroke-miterlimit="10" stroke-linecap="round" stroke-linejoin="round"/>
<path d="M35.2667 14.9667V1H26.4333" stroke="#1F2130" stroke-width="1.3" stroke-miterlimit="10" stroke-linecap="round" stroke-linejoin="round"/>
<path d="M9.09999 1H1V45.8334H35.4334" stroke="#1F2130" stroke-width="1.3" stroke-miterlimit="10" stroke-linecap="round" stroke-linejoin="round"/>
<path d="M35.4889 42.6067C39.7415 42.5817 43.1686 39.114 43.1436 34.8614C43.1185 30.6088 39.6509 27.1816 35.3982 27.2066C31.1456 27.2317 27.7185 30.6994 27.7436 34.952C27.7686 39.2046 31.2363 42.6317 35.4889 42.6067Z" stroke="#1F2130" stroke-width="1.3" stroke-miterlimit="10" stroke-linecap="round" stroke-linejoin="round"/>
<path d="M27.7 42.6335C25.7333 40.6335 24.5 37.9335 24.5 34.9002C24.5 28.8668 29.4 23.9668 35.4333 23.9668C41.4667 23.9668 46.3667 28.8668 46.3667 34.9002C46.3667 40.9335 41.4667 45.8668 35.4333 45.8335" stroke="#1F2130" stroke-width="1.3" stroke-miterlimit="10" stroke-linecap="round" stroke-linejoin="round"/>
<path d="M37.5334 21.8334C37.5334 23 36.6 23.9334 35.4334 23.9334C34.2667 23.9334 33.3334 23 33.3334 21.8334C33.3334 20.6667 34.2667 19.7334 35.4334 19.7334C36.6 19.7334 37.5334 20.6667 37.5334 21.8334Z" stroke="#1F2130" stroke-width="1.3" stroke-miterlimit="10" stroke-linecap="round" stroke-linejoin="round"/>
<path d="M27.3 27.1999L26.3667 26.4666C25.8334 26.0666 25.1 26.1666 24.7 26.6999C24.3 27.2333 24.4 27.9666 24.9333 28.3666L25.8667 29.1" stroke="#1F2130" stroke-width="1.3" stroke-miterlimit="10" stroke-linecap="round" stroke-linejoin="round"/>
<path d="M36.5668 34.4003C36.9668 35.067 36.7335 35.967 36.0335 36.367C35.3668 36.767 34.4668 36.5336 34.0668 35.8336C33.6668 35.167 33.9001 34.2669 34.6001 33.8669C35.3001 33.4669 36.2001 33.7003 36.5668 34.4003Z" stroke="#1F2130" stroke-width="1.3" stroke-miterlimit="10" stroke-linecap="round" stroke-linejoin="round"/>
<path d="M36.7667 35.7334L39.2001 37.1001" stroke="#1F2130" stroke-width="1.3" stroke-miterlimit="10" stroke-linecap="round" stroke-linejoin="round"/>
<path d="M35.3335 33.6666V29.7666" stroke="#1F2130" stroke-width="1.3" stroke-miterlimit="10" stroke-linecap="round" stroke-linejoin="round"/>
<path d="M43.3668 27.1999L44.3001 26.4666C44.8335 26.0666 45.5668 26.1666 45.9668 26.6999C46.3668 27.2333 46.2668 27.9666 45.7335 28.3666L44.8001 29.1" stroke="#1F2130" stroke-width="1.3" stroke-miterlimit="10" stroke-linecap="round" stroke-linejoin="round"/>
</svg>
