<svg width="68" height="34" viewBox="0 0 68 34" fill="none" xmlns="http://www.w3.org/2000/svg">
<circle cx="15.4999" cy="15.5" r="9.5" fill="white"/>
<path d="M41.0001 27.2654H3.46666C2.09999 27.2654 1 26.1654 1 24.7987C1 23.432 2.09999 22.332 3.46666 22.332H39.3667" stroke="#1F2130" stroke-width="1.3" stroke-miterlimit="10" stroke-linecap="round" stroke-linejoin="round"/>
<path d="M54.1001 32.699H12.9334C8.76669 32.3656 5.90002 29.1323 5.90002 29.1323" stroke="#1F2130" stroke-width="1.3" stroke-miterlimit="10" stroke-linecap="round" stroke-linejoin="round"/>
<path d="M13.0001 15.6324C13.1001 16.1658 13.4335 16.6324 13.9001 16.9658L11.9001 19.9991L13.9001 16.9658C13.4335 16.6324 13.1335 16.1658 13.0001 15.6324ZM13.0001 15.6324C12.8668 15.0658 12.9668 14.4658 13.3001 13.9658C13.6668 13.3991 14.2335 13.0658 14.8335 12.9991C15.3335 12.9324 15.8335 13.0324 16.2668 13.3324L19.9335 7.7324L19.7668 7.63242C17.7668 6.33242 15.4335 5.96573 13.2668 6.39906C11.0335 6.83239 8.96679 8.16574 7.60012 10.1991C7.56679 10.2324 7.56678 10.2658 7.53345 10.2658C6.00011 12.6658 5.76677 15.4991 6.63344 17.9991C6.86678 18.6658 7.20012 19.3325 7.60012 19.9325" stroke="#1F2130" stroke-width="1.3" stroke-miterlimit="10" stroke-linecap="round" stroke-linejoin="round"/>
<path d="M4.36663 19.9988C2.79996 16.4987 2.99997 12.2987 5.23331 8.83207C8.76665 3.33205 16.0667 1.73207 21.5667 5.26541L21.7667 5.39871" stroke="#1F2130" stroke-width="1.3" stroke-miterlimit="10" stroke-linecap="round" stroke-linejoin="round"/>
<path d="M13.3001 13.9658L7.63342 10.2324" stroke="#1F2130" stroke-width="1.3" stroke-miterlimit="10" stroke-linecap="round" stroke-linejoin="round"/>
<path d="M6.7002 18.0651L13.0002 15.6318" stroke="#1F2130" stroke-width="1.3" stroke-miterlimit="10" stroke-linecap="round" stroke-linejoin="round"/>
<path d="M14.8668 12.9988L13.3002 6.43213" stroke="#1F2130" stroke-width="1.3" stroke-miterlimit="10" stroke-linecap="round" stroke-linejoin="round"/>
<path d="M38.4001 18.9986C37.1334 18.5986 36.3334 17.5986 36.3667 16.6653C36.3667 16.3653 36.4667 15.7653 36.9667 15.2653C37.3001 14.932 37.7001 14.7986 37.9001 14.7653C37.7667 14.232 37.8334 13.632 38.1334 13.132C38.7001 12.1653 39.9001 11.7986 40.9001 12.2319C40.9334 11.9986 41.0334 11.7986 41.1667 11.5986C41.4667 11.0986 41.9334 10.7653 42.4334 10.5986" stroke="#1F2130" stroke-width="1.3" stroke-miterlimit="10" stroke-linecap="round" stroke-linejoin="round"/>
<path d="M24.4332 10.1322C24.4332 9.79883 24.4666 7.56551 25.1332 6.09884C25.2999 5.7655 25.5666 5.16549 26.1666 4.79882C26.4332 4.63216 26.6999 4.56547 26.7999 4.53214C27.1666 4.43214 27.5666 4.43214 27.9332 4.53214C27.9332 3.73214 28.3666 2.96547 29.0999 2.53214C30.0666 1.96547 31.2666 2.16549 31.9999 2.93216C32.1332 2.26549 32.4999 1.66548 33.1332 1.33214C34.2666 0.665475 35.6999 1.03214 36.3666 2.16548C36.4999 2.39881 36.5999 2.63214 36.6332 2.86547C37.7332 2.36547 38.9999 2.76548 39.6332 3.83215C39.9666 4.39882 40.0333 5.03217 39.8999 5.59883C40.0999 5.6655 40.5333 5.79882 40.8999 6.16549C41.4333 6.69882 41.5333 7.33216 41.5666 7.66549C41.5999 8.69882 40.6999 9.76548 39.3333 10.2321" stroke="#1F2130" stroke-width="1.3" stroke-miterlimit="10" stroke-linecap="round" stroke-linejoin="round"/>
<path d="M14.8667 19.8657C15 19.2991 15.1667 18.7658 15.4334 18.2658C16.3667 16.3991 17.9334 15.2324 18.6 14.7657C19 14.4991 19.4 14.2991 19.8 14.0991C22.0334 13.0991 24.1 13.2657 24.8 13.3657L25.1001 16.5324C24.6667 16.6991 24.0001 16.9991 23.1667 17.2991C21.8334 17.7991 21.5 17.8658 21.1334 18.2658C20.6334 18.7658 20.4334 19.3991 20.3667 19.8324" stroke="#1F2130" stroke-width="1.3" stroke-miterlimit="10" stroke-linecap="round" stroke-linejoin="round"/>
<path d="M26.8001 16.3323C26.8001 16.3323 31.5334 19.999 33.1001 18.899C33.3334 18.7323 33.4001 18.399 33.2668 18.1323C33.1668 17.9657 33.0334 17.7656 32.8334 17.5656C32.8334 17.5656 33.2668 17.4323 33.6334 17.1323C34.3334 16.599 34.1668 15.499 33.3334 15.2323C31.6668 14.6656 28.2001 13.6323 26.5668 13.7657L26.8001 16.3323Z" stroke="#1F2130" stroke-width="1.3" stroke-miterlimit="10" stroke-linecap="round" stroke-linejoin="round"/>
<path d="M18.6668 19.8656L15.4335 18.2656" stroke="#1F2130" stroke-width="1.3" stroke-miterlimit="10" stroke-linecap="round" stroke-linejoin="round"/>
<path d="M21.0667 18.2985L19.8 14.1318" stroke="#1F2130" stroke-width="1.3" stroke-miterlimit="10" stroke-linecap="round" stroke-linejoin="round"/>
<path d="M32.8667 17.5655L29.3334 16.1655" stroke="#1F2130" stroke-width="1.3" stroke-miterlimit="10" stroke-linecap="round" stroke-linejoin="round"/>
<path d="M44.6667 28.5651C42.6 26.3318 41.3667 23.3318 41.3667 20.0318C41.3667 13.0651 47.0334 7.39844 54.0001 7.39844C60.9667 7.39844 66.6334 13.0651 66.6334 20.0318C66.6334 26.9985 60.9667 32.6652 54.0001 32.6652" stroke="#1F2130" stroke-width="1.3" stroke-miterlimit="10" stroke-linecap="round" stroke-linejoin="round"/>
<circle cx="53.9999" cy="20" r="12" fill="white"/>
<mask id="path-18-inside-1" fill="white">
<path d="M45.286 22V21.2978L46.5587 21.3118L46.6114 17.9199H46.5738L45.5647 18.889L44.9999 18.3553L46.5663 17.0421L47.4473 17.0983V21.3118L48.5694 21.2978V22H45.286Z"/>
<path d="M49.0181 22V21.389C49.0181 21.389 49.1386 21.265 49.3795 21.0169C49.6256 20.7687 49.972 20.3942 50.4188 19.8933C50.73 19.5421 50.9836 19.2308 51.1794 18.9593C51.3802 18.6877 51.4806 18.4326 51.4806 18.1938C51.4806 18.0581 51.4354 17.948 51.3451 17.8638C51.2597 17.7748 51.1091 17.7303 50.8932 17.7303C50.7426 17.7303 50.5744 17.7537 50.3887 17.8006C50.2079 17.8474 50.0222 17.9106 49.8314 17.9902C49.6456 18.0651 49.4724 18.1493 49.3118 18.243L48.9578 17.632C49.0482 17.5618 49.1838 17.4775 49.3645 17.3792C49.5502 17.2809 49.7636 17.1943 50.0046 17.1194C50.2456 17.0398 50.4966 17 50.7577 17C51.0639 17 51.335 17.0515 51.571 17.1545C51.812 17.2575 52.0027 17.4026 52.1433 17.5899C52.2839 17.7725 52.3542 17.9902 52.3542 18.243C52.3542 18.4443 52.3065 18.6479 52.2111 18.8539C52.1207 19.0552 52.0027 19.2542 51.8571 19.4508C51.7166 19.6428 51.571 19.8277 51.4204 20.0056C51.3099 20.132 51.1894 20.2701 51.0589 20.4199C50.9284 20.5651 50.8028 20.7032 50.6824 20.8343C50.5669 20.9654 50.4715 21.073 50.3962 21.1573C50.3209 21.2416 50.2832 21.2837 50.2832 21.2837V21.3258L52.4671 21.2837V22H49.0181Z"/>
<path d="M53.1415 20.0407V19.3525H54.9639V20.0407H53.1415Z"/>
<path d="M55.7731 22V21.2978L57.0458 21.3118L57.0985 17.9199H57.0608L56.0517 18.889L55.4869 18.3553L57.0533 17.0421L57.9344 17.0983V21.3118L59.0565 21.2978V22H55.7731Z"/>
<path d="M61.6444 22L61.6594 20.9326H59.2571V20.3708L60.4922 17.007L61.3431 17.1124L60.1834 20.2374V20.2725L61.6594 20.2374L61.8552 18.4185H62.5104V20.2233L62.9999 20.2093V20.9326H62.5104L62.5179 22H61.6444Z"/>
</mask>
<path d="M45.286 22V21.2978L46.5587 21.3118L46.6114 17.9199H46.5738L45.5647 18.889L44.9999 18.3553L46.5663 17.0421L47.4473 17.0983V21.3118L48.5694 21.2978V22H45.286Z" fill="#1F2130"/>
<path d="M49.0181 22V21.389C49.0181 21.389 49.1386 21.265 49.3795 21.0169C49.6256 20.7687 49.972 20.3942 50.4188 19.8933C50.73 19.5421 50.9836 19.2308 51.1794 18.9593C51.3802 18.6877 51.4806 18.4326 51.4806 18.1938C51.4806 18.0581 51.4354 17.948 51.3451 17.8638C51.2597 17.7748 51.1091 17.7303 50.8932 17.7303C50.7426 17.7303 50.5744 17.7537 50.3887 17.8006C50.2079 17.8474 50.0222 17.9106 49.8314 17.9902C49.6456 18.0651 49.4724 18.1493 49.3118 18.243L48.9578 17.632C49.0482 17.5618 49.1838 17.4775 49.3645 17.3792C49.5502 17.2809 49.7636 17.1943 50.0046 17.1194C50.2456 17.0398 50.4966 17 50.7577 17C51.0639 17 51.335 17.0515 51.571 17.1545C51.812 17.2575 52.0027 17.4026 52.1433 17.5899C52.2839 17.7725 52.3542 17.9902 52.3542 18.243C52.3542 18.4443 52.3065 18.6479 52.2111 18.8539C52.1207 19.0552 52.0027 19.2542 51.8571 19.4508C51.7166 19.6428 51.571 19.8277 51.4204 20.0056C51.3099 20.132 51.1894 20.2701 51.0589 20.4199C50.9284 20.5651 50.8028 20.7032 50.6824 20.8343C50.5669 20.9654 50.4715 21.073 50.3962 21.1573C50.3209 21.2416 50.2832 21.2837 50.2832 21.2837V21.3258L52.4671 21.2837V22H49.0181Z" fill="#1F2130"/>
<path d="M53.1415 20.0407V19.3525H54.9639V20.0407H53.1415Z" fill="#1F2130"/>
<path d="M55.7731 22V21.2978L57.0458 21.3118L57.0985 17.9199H57.0608L56.0517 18.889L55.4869 18.3553L57.0533 17.0421L57.9344 17.0983V21.3118L59.0565 21.2978V22H55.7731Z" fill="#1F2130"/>
<path d="M61.6444 22L61.6594 20.9326H59.2571V20.3708L60.4922 17.007L61.3431 17.1124L60.1834 20.2374V20.2725L61.6594 20.2374L61.8552 18.4185H62.5104V20.2233L62.9999 20.2093V20.9326H62.5104L62.5179 22H61.6444Z" fill="#1F2130"/>
<path d="M45.286 22H43.986V23.3H45.286V22ZM45.286 21.2978L45.3004 19.9978L43.986 19.9833V21.2978H45.286ZM46.5587 21.3118L46.5444 22.6117L47.8385 22.626L47.8586 21.332L46.5587 21.3118ZM46.6114 17.9199L47.9113 17.9401L47.9318 16.6199H46.6114V17.9199ZM46.5738 17.9199V16.6199H46.0506L45.6733 16.9823L46.5738 17.9199ZM45.5647 18.889L44.6718 19.8339L45.5719 20.6845L46.4651 19.8267L45.5647 18.889ZM44.9999 18.3553L44.1647 17.3591L43.0457 18.2973L44.107 19.3002L44.9999 18.3553ZM46.5663 17.0421L46.649 15.7448L46.1298 15.7117L45.7311 16.0459L46.5663 17.0421ZM47.4473 17.0983H48.7473V15.8786L47.5301 15.8009L47.4473 17.0983ZM47.4473 21.3118H46.1473V22.6282L47.4636 22.6117L47.4473 21.3118ZM48.5694 21.2978H49.8694V19.9814L48.5531 19.9979L48.5694 21.2978ZM48.5694 22V23.3H49.8694V22H48.5694ZM49.0181 22H47.7181V23.3H49.0181V22ZM49.0181 21.389L48.0855 20.4833L47.7181 20.8617V21.389H49.0181ZM49.3795 21.0169L48.4563 20.1015L48.447 20.1111L49.3795 21.0169ZM50.4188 19.8933L51.3889 20.7586L51.3916 20.7556L50.4188 19.8933ZM51.1794 18.9593L50.1342 18.1863L50.1295 18.1926L50.1249 18.1989L51.1794 18.9593ZM51.3451 17.8638L50.407 18.7638L50.432 18.7899L50.4585 18.8145L51.3451 17.8638ZM50.3887 17.8006L50.0709 16.54L50.0627 16.5421L50.3887 17.8006ZM49.8314 17.9902L50.3176 19.1958L50.3248 19.1929L50.3319 19.19L49.8314 17.9902ZM49.3118 18.243L48.1869 18.8946L48.8403 20.0225L49.9664 19.3661L49.3118 18.243ZM48.9578 17.632L48.1601 16.6055L47.2641 17.3018L47.833 18.2837L48.9578 17.632ZM49.3645 17.3792L48.7564 16.2302L48.7498 16.2337L48.7433 16.2372L49.3645 17.3792ZM50.0046 17.1194L50.3905 18.3608L50.4014 18.3574L50.4123 18.3538L50.0046 17.1194ZM51.571 17.1545L51.0509 18.346L51.0601 18.3499L51.571 17.1545ZM52.1433 17.5899L51.1036 18.3703L51.1084 18.3767L51.1132 18.3829L52.1433 17.5899ZM52.2111 18.8539L51.0314 18.3077L51.0282 18.3146L51.0251 18.3215L52.2111 18.8539ZM51.8571 19.4508L50.8124 18.6772L50.8083 18.6827L51.8571 19.4508ZM51.4204 20.0056L52.3993 20.861L52.406 20.8534L52.4125 20.8456L51.4204 20.0056ZM51.0589 20.4199L52.0255 21.2893L52.0323 21.2817L52.039 21.2739L51.0589 20.4199ZM50.6824 20.8343L49.7252 19.9545L49.7159 19.9647L49.7068 19.975L50.6824 20.8343ZM50.3962 21.1573L51.3655 22.0235V22.0235L50.3962 21.1573ZM50.2832 21.2837L49.3139 20.4175L48.9832 20.7875V21.2837H50.2832ZM50.2832 21.3258H48.9832V22.6512L50.3083 22.6256L50.2832 21.3258ZM52.4671 21.2837H53.7671V19.9584L52.442 19.9839L52.4671 21.2837ZM52.4671 22V23.3H53.7671V22H52.4671ZM53.1415 20.0407H51.8415V21.3407H53.1415V20.0407ZM53.1415 19.3525V18.0525H51.8415V19.3525H53.1415ZM54.9639 19.3525H56.2639V18.0525H54.9639V19.3525ZM54.9639 20.0407V21.3407H56.2639V20.0407H54.9639ZM55.7731 22H54.4731V23.3H55.7731V22ZM55.7731 21.2978L55.7874 19.9978L54.4731 19.9833V21.2978H55.7731ZM57.0458 21.3118L57.0314 22.6117L58.3255 22.626L58.3456 21.332L57.0458 21.3118ZM57.0985 17.9199L58.3983 17.9401L58.4188 16.6199H57.0985V17.9199ZM57.0608 17.9199V16.6199H56.5377L56.1604 16.9823L57.0608 17.9199ZM56.0517 18.889L55.1589 19.8339L56.059 20.6845L56.9522 19.8267L56.0517 18.889ZM55.4869 18.3553L54.6517 17.3591L53.5327 18.2973L54.5941 19.3002L55.4869 18.3553ZM57.0533 17.0421L57.136 15.7448L56.6168 15.7117L56.2181 16.0459L57.0533 17.0421ZM57.9344 17.0983H59.2344V15.8786L58.0171 15.8009L57.9344 17.0983ZM57.9344 21.3118H56.6344V22.6282L57.9507 22.6117L57.9344 21.3118ZM59.0565 21.2978H60.3565V19.9814L59.0402 19.9979L59.0565 21.2978ZM59.0565 22V23.3H60.3565V22H59.0565ZM61.6444 22L60.3445 21.9817L60.3259 23.3H61.6444V22ZM61.6594 20.9326L62.9593 20.9509L62.9779 19.6326H61.6594V20.9326ZM59.2571 20.9326H57.9571V22.2326H59.2571V20.9326ZM59.2571 20.3708L58.0368 19.9227L57.9571 20.1397V20.3708H59.2571ZM60.4922 17.007L60.6519 15.7169L59.6276 15.5901L59.2718 16.559L60.4922 17.007ZM61.3431 17.1124L62.5619 17.5647L63.1336 16.0241L61.5028 15.8222L61.3431 17.1124ZM60.1834 20.2374L58.9646 19.7851L58.8834 20.0039V20.2374H60.1834ZM60.1834 20.2725H58.8834V21.6038L60.2143 21.5721L60.1834 20.2725ZM61.6594 20.2374L61.6903 21.537L62.8299 21.5099L62.952 20.3765L61.6594 20.2374ZM61.8552 18.4185V17.1185H60.6877L60.5627 18.2794L61.8552 18.4185ZM62.5104 18.4185H63.8104V17.1185H62.5104V18.4185ZM62.5104 20.2233H61.2104V21.5612L62.5477 21.5228L62.5104 20.2233ZM62.9999 20.2093H64.2999V18.8714L62.9626 18.9098L62.9999 20.2093ZM62.9999 20.9326V22.2326H64.2999V20.9326H62.9999ZM62.5104 20.9326V19.6326H61.2012L61.2104 20.9418L62.5104 20.9326ZM62.5179 22V23.3H63.8271L63.8179 21.9908L62.5179 22ZM46.586 22V21.2978H43.986V22H46.586ZM45.2717 22.5977L46.5444 22.6117L46.5731 20.0119L45.3004 19.9978L45.2717 22.5977ZM47.8586 21.332L47.9113 17.9401L45.3116 17.8997L45.2589 21.2916L47.8586 21.332ZM46.6114 16.6199H46.5738V19.2199H46.6114V16.6199ZM45.6733 16.9823L44.6642 17.9514L46.4651 19.8267L47.4743 18.8576L45.6733 16.9823ZM46.4575 17.9442L45.8927 17.4105L44.107 19.3002L44.6718 19.8339L46.4575 17.9442ZM45.8351 19.3516L47.4015 18.0384L45.7311 16.0459L44.1647 17.3591L45.8351 19.3516ZM46.4835 18.3395L47.3646 18.3957L47.5301 15.8009L46.649 15.7448L46.4835 18.3395ZM46.1473 17.0983V21.3118H48.7473V17.0983H46.1473ZM47.4636 22.6117L48.5857 22.5977L48.5531 19.9979L47.4311 20.0119L47.4636 22.6117ZM47.2694 21.2978V22H49.8694V21.2978H47.2694ZM48.5694 20.7H45.286V23.3H48.5694V20.7ZM50.3181 22V21.389H47.7181V22H50.3181ZM49.0181 21.389C49.9506 22.2948 49.9506 22.2948 49.9506 22.2948C49.9506 22.2948 49.9507 22.2948 49.9507 22.2948C49.9507 22.2948 49.9507 22.2947 49.9507 22.2947C49.9507 22.2947 49.9507 22.2947 49.9507 22.2947C49.9508 22.2946 49.9509 22.2945 49.951 22.2944C49.9512 22.2942 49.9516 22.2938 49.9521 22.2933C49.953 22.2923 49.9544 22.2909 49.9563 22.2889C49.9601 22.2851 49.9657 22.2792 49.9732 22.2715C49.9883 22.256 50.0109 22.2327 50.041 22.2017C50.1013 22.1397 50.1916 22.0466 50.3121 21.9226L48.447 20.1111C48.3265 20.2352 48.2361 20.3283 48.1759 20.3903C48.1458 20.4213 48.1232 20.4446 48.1081 20.4601C48.1006 20.4678 48.0949 20.4736 48.0912 20.4775C48.0893 20.4795 48.0879 20.4809 48.0869 20.4819C48.0864 20.4824 48.0861 20.4827 48.0859 20.483C48.0857 20.4831 48.0857 20.4832 48.0856 20.4832C48.0856 20.4833 48.0855 20.4833 48.0855 20.4833C48.0855 20.4833 48.0855 20.4833 48.0855 20.4833C48.0855 20.4833 48.0855 20.4833 48.0855 20.4833C48.0855 20.4833 48.0855 20.4833 49.0181 21.389ZM50.3027 21.9321C50.5734 21.6591 50.938 21.2641 51.3889 20.7586L49.4486 19.0279C49.0059 19.5243 48.6777 19.8783 48.4564 20.1016L50.3027 21.9321ZM51.3916 20.7556C51.7213 20.3837 52.0047 20.0374 52.2338 19.7196L50.1249 18.1989C49.9624 18.4242 49.7388 18.7005 49.446 19.0309L51.3916 20.7556ZM52.2246 19.7323C52.5243 19.327 52.7806 18.8051 52.7806 18.1938H50.1806C50.1806 18.1619 50.184 18.1358 50.1878 18.117C50.1916 18.0985 50.1954 18.0887 50.1956 18.0882C50.1957 18.0879 50.1925 18.0962 50.1827 18.1133C50.1729 18.1304 50.1575 18.1547 50.1342 18.1863L52.2246 19.7323ZM52.7806 18.1938C52.7806 17.7371 52.6133 17.2689 52.2317 16.913L50.4585 18.8145C50.3721 18.734 50.2955 18.6284 50.2442 18.5034C50.194 18.3811 50.1806 18.2715 50.1806 18.1938H52.7806ZM52.2831 16.9637C51.8223 16.4834 51.2156 16.4303 50.8932 16.4303V19.0303C50.9196 19.0303 50.8794 19.0339 50.7999 19.0105C50.7166 18.9859 50.5582 18.9214 50.407 18.7638L52.2831 16.9637ZM50.8932 16.4303C50.6111 16.4303 50.3339 16.4737 50.071 16.54L50.7064 19.0611C50.8149 19.0338 50.8741 19.0303 50.8932 19.0303V16.4303ZM50.0627 16.5421C49.8165 16.6059 49.5724 16.6896 49.3309 16.7904L50.3319 19.19C50.4719 19.1315 50.5993 19.0889 50.7146 19.059L50.0627 16.5421ZM49.3452 16.7845C49.1058 16.881 48.8759 16.9924 48.6572 17.1198L49.9664 19.3661C50.069 19.3063 50.1855 19.2491 50.3176 19.1958L49.3452 16.7845ZM50.4366 17.5913L50.0827 16.9804L47.833 18.2837L48.1869 18.8946L50.4366 17.5913ZM49.7555 18.6585C49.7541 18.6596 49.7705 18.647 49.8136 18.6202C49.855 18.5945 49.9115 18.5616 49.9857 18.5212L48.7433 16.2372C48.5412 16.3472 48.3334 16.4709 48.1601 16.6055L49.7555 18.6585ZM49.9726 18.5282C50.0749 18.4741 50.2115 18.4164 50.3905 18.3608L49.6187 15.878C49.3157 15.9722 49.0256 16.0877 48.7564 16.2302L49.9726 18.5282ZM50.4123 18.3538C50.518 18.3189 50.6311 18.3 50.7577 18.3V15.7C50.3621 15.7 49.9732 15.7607 49.5969 15.885L50.4123 18.3538ZM50.7577 18.3C50.9183 18.3 51.007 18.3268 51.0509 18.3459L52.091 15.9631C51.663 15.7762 51.2095 15.7 50.7577 15.7V18.3ZM51.0601 18.3499C51.0913 18.3632 51.1049 18.3731 51.1077 18.3752C51.1098 18.3769 51.1071 18.3749 51.1036 18.3703L53.183 16.8095C52.8898 16.4189 52.5069 16.1408 52.0819 15.9591L51.0601 18.3499ZM51.1132 18.3829C51.0931 18.3568 51.0754 18.3239 51.0643 18.2895C51.0537 18.2565 51.0542 18.238 51.0542 18.243H53.6542C53.6542 17.7328 53.5062 17.2291 53.1734 16.7968L51.1132 18.3829ZM51.0542 18.243C51.0542 18.24 51.0546 18.2418 51.0526 18.2503C51.0506 18.2592 51.0451 18.2781 51.0314 18.3077L53.3907 19.4002C53.5553 19.0449 53.6542 18.6557 53.6542 18.243H51.0542ZM51.0251 18.3215C50.9769 18.429 50.9083 18.5477 50.8124 18.6772L52.9019 20.2244C53.0972 19.9607 53.2646 19.6815 53.3971 19.3863L51.0251 18.3215ZM50.8083 18.6827C50.6854 18.8506 50.5587 19.0115 50.4282 19.1656L52.4125 20.8456C52.5833 20.6439 52.7477 20.435 52.906 20.2189L50.8083 18.6827ZM50.4414 19.1502C50.3305 19.2772 50.2096 19.4158 50.0787 19.5659L52.039 21.2739C52.1692 21.1245 52.2893 20.9869 52.3993 20.861L50.4414 19.1502ZM50.0923 19.5506C49.9646 19.6926 49.8423 19.8272 49.7252 19.9545L51.6395 21.714C51.7634 21.5792 51.8921 21.4376 52.0255 21.2893L50.0923 19.5506ZM49.7068 19.975C49.5925 20.1048 49.4993 20.21 49.4268 20.2911L51.3655 22.0235C51.4437 21.9361 51.5413 21.8259 51.6579 21.6936L49.7068 19.975ZM49.4268 20.2911C49.3892 20.3332 49.361 20.3648 49.3421 20.3859C49.3327 20.3964 49.3257 20.4043 49.3209 20.4096C49.3186 20.4122 49.3168 20.4142 49.3157 20.4155C49.3151 20.4162 49.3146 20.4166 49.3143 20.417C49.3142 20.4171 49.3141 20.4173 49.314 20.4173C49.314 20.4174 49.3139 20.4174 49.3139 20.4174C49.3139 20.4174 49.3139 20.4175 49.3139 20.4175C49.3139 20.4175 49.3139 20.4175 49.3139 20.4175C49.3139 20.4175 49.3139 20.4175 49.3139 20.4175C49.3139 20.4175 49.3139 20.4175 50.2832 21.2837C51.2526 22.1499 51.2526 22.1499 51.2526 22.1499C51.2526 22.1499 51.2526 22.1499 51.2526 22.1499C51.2526 22.1499 51.2526 22.1499 51.2526 22.1499C51.2526 22.1499 51.2526 22.1499 51.2526 22.1499C51.2526 22.1499 51.2526 22.1499 51.2527 22.1498C51.2528 22.1497 51.2529 22.1496 51.253 22.1495C51.2533 22.1491 51.2537 22.1486 51.2543 22.148C51.2555 22.1467 51.2573 22.1447 51.2596 22.142C51.2643 22.1368 51.2714 22.1289 51.2808 22.1183C51.2996 22.0973 51.3279 22.0657 51.3655 22.0235L49.4268 20.2911ZM48.9832 21.2837V21.3258H51.5832V21.2837H48.9832ZM50.3083 22.6256L52.4922 22.5835L52.442 19.9839L50.2582 20.0261L50.3083 22.6256ZM51.1671 21.2837V22H53.7671V21.2837H51.1671ZM52.4671 20.7H49.0181V23.3H52.4671V20.7ZM54.4415 20.0407V19.3525H51.8415V20.0407H54.4415ZM53.1415 20.6525H54.9639V18.0525H53.1415V20.6525ZM53.6639 19.3525V20.0407H56.2639V19.3525H53.6639ZM54.9639 18.7407H53.1415V21.3407H54.9639V18.7407ZM57.0731 22V21.2978H54.4731V22H57.0731ZM55.7587 22.5977L57.0314 22.6117L57.0601 20.0119L55.7874 19.9978L55.7587 22.5977ZM58.3456 21.332L58.3983 17.9401L55.7986 17.8997L55.7459 21.2916L58.3456 21.332ZM57.0985 16.6199H57.0608V19.2199H57.0985V16.6199ZM56.1604 16.9823L55.1513 17.9514L56.9522 19.8267L57.9613 18.8576L56.1604 16.9823ZM56.9446 17.9442L56.3798 17.4105L54.5941 19.3002L55.1589 19.8339L56.9446 17.9442ZM56.3221 19.3516L57.8885 18.0384L56.2181 16.0459L54.6517 17.3591L56.3221 19.3516ZM56.9706 18.3395L57.8517 18.3957L58.0171 15.8009L57.136 15.7448L56.9706 18.3395ZM56.6344 17.0983V21.3118H59.2344V17.0983H56.6344ZM57.9507 22.6117L59.0727 22.5977L59.0402 19.9979L57.9181 20.0119L57.9507 22.6117ZM57.7565 21.2978V22H60.3565V21.2978H57.7565ZM59.0565 20.7H55.7731V23.3H59.0565V20.7ZM62.9442 22.0183L62.9593 20.9509L60.3595 20.9142L60.3445 21.9817L62.9442 22.0183ZM61.6594 19.6326H59.2571V22.2326H61.6594V19.6326ZM60.5571 20.9326V20.3708H57.9571V20.9326H60.5571ZM60.4775 20.8188L61.7125 17.4551L59.2718 16.559L58.0368 19.9227L60.4775 20.8188ZM60.3325 18.2972L61.1834 18.4025L61.5028 15.8222L60.6519 15.7169L60.3325 18.2972ZM60.1244 16.6601L58.9646 19.7851L61.4022 20.6897L62.5619 17.5647L60.1244 16.6601ZM58.8834 20.2374V20.2725H61.4834V20.2374H58.8834ZM60.2143 21.5721L61.6903 21.537L61.6285 18.9377L60.1525 18.9728L60.2143 21.5721ZM62.952 20.3765L63.1477 18.5577L60.5627 18.2794L60.3669 20.0982L62.952 20.3765ZM61.8552 19.7185H62.5104V17.1185H61.8552V19.7185ZM61.2104 18.4185V20.2233H63.8104V18.4185H61.2104ZM62.5477 21.5228L63.0372 21.5087L62.9626 18.9098L62.4731 18.9238L62.5477 21.5228ZM61.6999 20.2093V20.9326H64.2999V20.2093H61.6999ZM62.9999 19.6326H62.5104V22.2326H62.9999V19.6326ZM61.2104 20.9418L61.2179 22.0092L63.8179 21.9908L63.8104 20.9234L61.2104 20.9418ZM62.5179 20.7H61.6444V23.3H62.5179V20.7Z" fill="#1F2130" mask="url(#path-18-inside-1)"/>
</svg>
