<svg width="60" height="43" viewBox="0 0 60 43" fill="none" xmlns="http://www.w3.org/2000/svg">
<path d="M47.5 20H21V20.5L33.5 30.5L47.5 20Z" fill="white"/>
<path d="M34.7867 1.0472C38.4533 1.2472 42.0534 2.18053 45.32 3.81387C50.22 6.28054 54.3867 10.4139 56.32 15.5806C56.72 16.6806 55.8867 17.8806 54.72 17.8806H11.6866C10.52 17.8806 9.65329 16.7139 10.0866 15.5806C12.2866 9.68054 17.2866 5.21387 23.0533 2.91387C26.7533 1.4472 30.7867 0.813863 34.7867 1.0472Z" stroke="#1F2130" stroke-width="1.3" stroke-miterlimit="10" stroke-linecap="round" stroke-linejoin="round"/>
<path d="M25.5533 27.2806H22.0866H12.8532C11.3532 27.2806 10.1199 25.6805 10.1199 23.7472C10.1199 22.7472 10.4199 21.8805 10.9199 21.2472C11.4199 20.6139 12.0865 20.2139 12.8532 20.2139H16.6866H28.4199" stroke="#1F2130" stroke-width="1.3" stroke-miterlimit="10" stroke-linecap="round" stroke-linejoin="round"/>
<path d="M49.8867 20.2139H53.6534C55.1534 20.2139 56.3867 21.8139 56.3867 23.7472" stroke="#1F2130" stroke-width="1.3" stroke-miterlimit="10" stroke-linecap="round" stroke-linejoin="round"/>
<path d="M47.02 20.2139C47.02 20.2139 35.7533 27.3472 33.1866 31.0805C30.6533 27.3472 19.3533 20.2139 19.3533 20.2139" stroke="#1F2130" stroke-width="1.3" stroke-miterlimit="10" stroke-linecap="round" stroke-linejoin="round"/>
<circle cx="50.5" cy="32.5" r="8.5" fill="white"/>
<path d="M25.5532 5.81391C25.6866 5.44725 26.1199 5.24724 26.4866 5.41391C26.6532 5.48057 26.7532 5.58057 26.8532 5.74724" stroke="#1F2130" stroke-width="1.3" stroke-miterlimit="10" stroke-linecap="round" stroke-linejoin="round"/>
<path d="M32.4531 7.98042C32.5865 7.61375 33.0198 7.41374 33.3865 7.58041C33.5531 7.64708 33.6531 7.74708 33.7531 7.91375" stroke="#1F2130" stroke-width="1.3" stroke-miterlimit="10" stroke-linecap="round" stroke-linejoin="round"/>
<path d="M20.4531 10.247C20.5865 9.88033 21.0198 9.68035 21.3865 9.84702C21.5531 9.91368 21.6531 10.0137 21.7531 10.1804" stroke="#1F2130" stroke-width="1.3" stroke-miterlimit="10" stroke-linecap="round" stroke-linejoin="round"/>
<path d="M28.1865 10.247C28.3199 9.88033 28.7532 9.68035 29.1199 9.84702C29.2865 9.91368 29.3865 10.0137 29.4865 10.1804" stroke="#1F2130" stroke-width="1.3" stroke-miterlimit="10" stroke-linecap="round" stroke-linejoin="round"/>
<path d="M23.4866 13.914C23.6199 13.5473 24.0532 13.3473 24.4199 13.514C24.5866 13.5807 24.6866 13.6807 24.7866 13.8473" stroke="#1F2130" stroke-width="1.3" stroke-miterlimit="10" stroke-linecap="round" stroke-linejoin="round"/>
<path d="M32.4531 13.914C32.5865 13.5473 33.0198 13.3473 33.3865 13.514C33.5531 13.5807 33.6531 13.6807 33.7531 13.8473" stroke="#1F2130" stroke-width="1.3" stroke-miterlimit="10" stroke-linecap="round" stroke-linejoin="round"/>
<path d="M40.1868 13.914C40.3201 13.5473 40.7534 13.3473 41.1201 13.514C41.2868 13.5807 41.3868 13.6807 41.4868 13.8473" stroke="#1F2130" stroke-width="1.3" stroke-miterlimit="10" stroke-linecap="round" stroke-linejoin="round"/>
<path d="M36.8198 10.247C36.9532 9.88033 37.3865 9.68035 37.7532 9.84702C37.9198 9.91368 38.0198 10.0137 38.1198 10.1804" stroke="#1F2130" stroke-width="1.3" stroke-miterlimit="10" stroke-linecap="round" stroke-linejoin="round"/>
<path d="M43.5867 10.247C43.72 9.88033 44.1533 9.68035 44.52 9.84702C44.6867 9.91368 44.7867 10.0137 44.8867 10.1804" stroke="#1F2130" stroke-width="1.3" stroke-miterlimit="10" stroke-linecap="round" stroke-linejoin="round"/>
<path d="M38.3867 5.81391C38.5201 5.44725 38.9534 5.24724 39.32 5.41391C39.4867 5.48057 39.5867 5.58057 39.6867 5.74724" stroke="#1F2130" stroke-width="1.3" stroke-miterlimit="10" stroke-linecap="round" stroke-linejoin="round"/>
<path d="M50.6198 41.4141H28.4531" stroke="#1F2130" stroke-width="1.3" stroke-miterlimit="10" stroke-linecap="round" stroke-linejoin="round"/>
<path d="M10.1199 35.1805L1.95319 32.1138C1.18652 31.8471 0.819859 31.0138 1.08653 30.2471L1.41986 29.3804C1.68653 28.6138 2.51985 28.2471 3.28652 28.5138L13.5532 32.3138" stroke="#1F2130" stroke-width="1.3" stroke-miterlimit="10" stroke-linecap="round" stroke-linejoin="round"/>
<path d="M23.2534 35.9804L35.3201 33.447C36.1201 33.2804 36.8868 33.7804 37.0535 34.5804L37.2534 35.5137C37.4201 36.3137 36.9201 37.0804 36.1201 37.247L29.1201 38.5804" stroke="#1F2130" stroke-width="1.3" stroke-miterlimit="10" stroke-linecap="round" stroke-linejoin="round"/>
<path d="M13.3533 35.7141L21.1533 29.6808C21.7866 29.1808 22.6866 29.2808 23.1866 29.9141L23.7866 30.6474C24.2866 31.2808 24.1866 32.1808 23.5533 32.6808L18.8533 36.1808" stroke="#1F2130" stroke-width="1.3" stroke-miterlimit="10" stroke-linecap="round" stroke-linejoin="round"/>
<path d="M5.15332 39.9471C5.15332 40.5804 5.65331 41.1138 6.28664 41.1138L25.62 41.5471C26.42 41.5471 27.0534 40.8804 27.0534 40.0804V39.1471C27.0534 38.3471 26.3867 37.7138 25.5867 37.7138L6.35331 37.6138C5.71998 37.6138 5.21998 38.1138 5.18665 38.7471L5.15332 39.9471Z" stroke="#1F2130" stroke-width="1.3" stroke-miterlimit="10" stroke-linecap="round" stroke-linejoin="round"/>
<path d="M42.9866 36.4805C42.52 35.4138 42.22 34.2471 42.22 33.0138C42.22 28.3804 45.9866 24.6138 50.62 24.6138C55.2533 24.6138 59.02 28.3804 59.02 33.0138C59.02 37.6471 55.2533 41.4138 50.62 41.4138" stroke="#1F2130" stroke-width="1.3" stroke-miterlimit="10" stroke-linecap="round" stroke-linejoin="round"/>
<path d="M46.1868 28.5801L55.0535 37.4468" stroke="#1F2130" stroke-width="1.3" stroke-miterlimit="10" stroke-linecap="round" stroke-linejoin="round"/>
<path d="M55.0535 28.5801L46.1868 37.4468" stroke="#1F2130" stroke-width="1.3" stroke-miterlimit="10" stroke-linecap="round" stroke-linejoin="round"/>
</svg>
