<svg width="40" height="46" viewBox="0 0 40 46" fill="none" xmlns="http://www.w3.org/2000/svg">
<path d="M6.76514 28.2539C6.76514 28.2539 9.09847 31.2206 8.26514 37.1872C7.96514 39.3872 8.1318 41.5873 8.69847 43.7206L8.76514 43.9873" stroke="#1F2130" stroke-width="1.3" stroke-miterlimit="10" stroke-linecap="round" stroke-linejoin="round"/>
<path d="M19.2985 1.3871C16.4318 0.387097 13.2984 1.42043 11.0984 3.3871C8.29844 5.88711 7.0651 9.72044 7.09844 13.4204C7.13177 15.2871 7.4651 17.1538 8.13177 18.8871C8.89844 20.9205 10.2651 22.6205 11.0318 24.6205" stroke="#1F2130" stroke-width="1.3" stroke-miterlimit="10" stroke-linecap="round" stroke-linejoin="round"/>
<path d="M20.4318 2.08691C21.1651 3.68692 23.0985 4.92024 23.0318 6.82024C22.9318 8.98691 20.9985 10.9202 19.1318 11.8203C16.4651 13.1203 13.1651 12.7536 10.8984 14.8869" stroke="#1F2130" stroke-width="1.3" stroke-miterlimit="10" stroke-linecap="round" stroke-linejoin="round"/>
<path d="M23.8319 9.25391C23.3319 11.3206 26.4652 11.7873 26.1985 13.8873" stroke="#1F2130" stroke-width="1.3" stroke-miterlimit="10" stroke-linecap="round" stroke-linejoin="round"/>
<path d="M20.4319 2.08705C23.6652 1.75371 26.3319 3.82037 27.6652 6.65371C29.9652 11.5537 29.1319 17.7871 25.3986 21.8204" stroke="#1F2130" stroke-width="1.3" stroke-miterlimit="10" stroke-linecap="round" stroke-linejoin="round"/>
<circle cx="30" cy="36" r="9" fill="white"/>
<ellipse cx="18.5" cy="15.5" rx="6.5" ry="8.5" fill="white"/>
<path d="M32.82 28.6464L32.9199 28.213C32.9533 28.0464 32.9533 27.8797 32.8533 27.713C32.7533 27.5464 32.62 27.4464 32.4533 27.4131L30.8866 27.0131C30.72 26.9797 30.52 27.0131 30.3866 27.0797C30.2533 27.1797 30.1533 27.313 30.0866 27.4797L29.7533 28.8797L27.9866 29.0464L27.3533 27.7798C27.2866 27.6131 27.1533 27.5131 26.9866 27.4464C26.8199 27.3798 26.6199 27.3797 26.4866 27.4797L25.0533 28.1797C24.8866 28.2464 24.7866 28.4131 24.7199 28.5797C24.6533 28.7464 24.6866 28.9131 24.7533 29.0797L25.3866 30.3797L24.1533 31.6798L22.8533 31.1131C22.6866 31.0464 22.5199 31.0464 22.3533 31.0797C22.1866 31.1464 22.0533 31.2798 21.9866 31.4464L21.3533 32.9131C21.2866 33.0797 21.2866 33.2464 21.3533 33.4131C21.4199 33.5797 21.5533 33.7131 21.6866 33.7798L22.9866 34.3464L22.8533 36.1464L21.4866 36.5464C21.3199 36.5797 21.1866 36.7131 21.0866 36.8464C20.9866 37.0131 20.9866 37.1798 21.0199 37.3464L21.4533 38.8797C21.4866 39.0464 21.6199 39.1798 21.7866 39.2798C21.9199 39.3465 22.1199 39.3797 22.2866 39.3131L23.6533 38.9131L24.6866 40.3797" stroke="#1F2130" stroke-width="1.3" stroke-miterlimit="10" stroke-linecap="round" stroke-linejoin="round"/>
<path d="M28.3531 42.68C28.3865 42.68 28.4198 42.7133 28.4198 42.7133C28.7198 42.78 29.2865 42.88 29.2865 42.88L29.4531 44.3133C29.4531 44.48 29.5532 44.6467 29.6865 44.7467C29.8198 44.8467 29.9865 44.9133 30.1865 44.88L31.7865 44.7133C31.9532 44.68 32.1198 44.6134 32.2531 44.4467C32.3531 44.3134 32.4198 44.1466 32.3865 43.98L32.2198 42.5466L33.8198 41.78L34.8532 42.78C34.9865 42.9134 35.1532 42.98 35.3198 42.98C35.4865 42.98 35.6865 42.9134 35.7865 42.78L36.8865 41.6134C37.0198 41.48 37.0865 41.3133 37.0865 41.1466C37.0865 40.98 37.0198 40.8133 36.8865 40.7133L35.8532 39.7133L36.5865 38.08L38.0198 38.18C38.1865 38.18 38.3532 38.1467 38.4865 38.0133C38.6198 37.9133 38.7198 37.7466 38.7198 37.5466L38.8198 35.9467C38.8198 35.78 38.7532 35.58 38.6532 35.4467C38.5532 35.3133 38.3865 35.2466 38.2198 35.2466L36.7865 35.1466L36.2865 33.4133L37.4532 32.58C37.5865 32.48 37.6865 32.3466 37.7198 32.1466C37.7532 31.98 37.7198 31.7799 37.5865 31.6466L36.6532 30.3466C36.5532 30.2133 36.3865 30.1133 36.2198 30.08C36.0532 30.0466 35.8865 30.1133 35.7531 30.2133L35.3198 30.5133" stroke="#1F2130" stroke-width="1.3" stroke-miterlimit="10" stroke-linecap="round" stroke-linejoin="round"/>
<path d="M33.0532 30.6797L27.9198 35.513L31.9865 36.013L27.3198 40.2464" stroke="#1F2130" stroke-width="1.3" stroke-miterlimit="10" stroke-linecap="round" stroke-linejoin="round"/>
<path d="M15.9318 25.7205C16.5651 26.9872 16.8318 28.4539 16.7984 29.8539C16.7651 32.4539 15.8318 34.8539 14.1651 36.8539C14.1318 34.1539 12.5984 31.7205 10.9651 29.5205C10.2317 28.5205 9.46508 27.5539 8.96508 26.4539C8.43174 25.3539 8.1984 24.0539 8.53174 22.8872" stroke="#1F2130" stroke-width="1.3" stroke-miterlimit="10" stroke-linecap="round" stroke-linejoin="round"/>
<path d="M11.6985 33.0205C11.4652 33.7538 11.3985 34.3539 11.3652 34.7872C11.2985 36.4539 11.8985 37.7539 12.3985 38.7872C12.6985 39.4539 13.0319 39.9872 13.2652 40.3205" stroke="#1F2130" stroke-width="1.3" stroke-miterlimit="10" stroke-linecap="round" stroke-linejoin="round"/>
<path d="M17.2985 32.9204C17.7652 34.0204 18.4652 36.2204 17.7652 38.4204C17.6985 38.6538 17.3985 39.5871 16.7318 40.6204C15.8318 41.9538 14.7652 42.7537 14.0985 43.1537" stroke="#1F2130" stroke-width="1.3" stroke-miterlimit="10" stroke-linecap="round" stroke-linejoin="round"/>
<path d="M20.1985 4.85352C20.8985 6.15352 20.8318 7.58686 19.7651 8.65353C18.9651 9.45353 17.8651 9.92021 16.7985 10.2869C15.1318 10.8202 13.2318 11.0202 11.8984 12.2202" stroke="#1F2130" stroke-width="1.3" stroke-miterlimit="10" stroke-linecap="round" stroke-linejoin="round"/>
<path d="M18.2319 4.65381C18.3652 5.15381 18.2652 5.72048 17.9986 6.15381C17.6319 6.68715 17.0319 7.02049 16.4319 7.28716" stroke="#1F2130" stroke-width="1.3" stroke-miterlimit="10" stroke-linecap="round" stroke-linejoin="round"/>
<path d="M18.6652 2.58726C18.6652 2.58726 12.3318 2.25391 10.5985 7.48726" stroke="#1F2130" stroke-width="1.3" stroke-miterlimit="10" stroke-linecap="round" stroke-linejoin="round"/>
<path d="M7.93184 27.7207L5.86516 28.3207C3.93183 28.854 2.33183 30.2207 1.46516 32.054C1.06516 32.8874 0.931821 33.8207 1.03182 34.754L2.63183 45.1874" stroke="#1F2130" stroke-width="1.3" stroke-miterlimit="10" stroke-linecap="round" stroke-linejoin="round"/>
<path d="M24.9986 15.8867C24.9653 16.8534 24.8653 17.92 24.5653 18.9867C24.3986 19.6534 23.9986 20.3534 23.4986 20.9867L23.3986 21.12C22.3986 22.3867 20.9653 23.5201 19.9319 24.2534C19.1319 24.8201 18.1319 24.8201 17.3319 24.2534C15.7653 23.1534 13.2652 21.1201 12.7319 19.0534C12.4319 17.9867 12.3319 16.8867 12.2986 15.9534" stroke="#1F2130" stroke-width="1.3" stroke-miterlimit="10" stroke-linecap="round" stroke-linejoin="round"/>
</svg>
