<svg width="44" height="46" viewBox="0 0 44 46" fill="none" xmlns="http://www.w3.org/2000/svg">
<rect x="4" y="4" width="27" height="38" fill="white"/>
<path d="M15.3002 12.8667C15.3002 13.6667 14.8669 14.6667 14.2336 15.2334C13.9336 15.5001 13.5669 15.7 13.2002 15.7C12.8669 15.7 12.5336 15.5667 12.2336 15.3334C11.5336 14.7667 11.0669 13.7 11.0669 12.8667C11.0669 11.7 12.0002 10.7334 13.2002 10.7334C14.3669 10.7334 15.3002 11.7 15.3002 12.8667Z" stroke="#1F2130" stroke-width="1.3" stroke-miterlimit="10" stroke-linecap="round" stroke-linejoin="round"/>
<path d="M17.8335 17.8002V20.3669H8.73352V17.8002C8.73352 16.9002 9.33353 16.1002 10.2002 15.8669L12.2002 15.3002C12.5002 15.5335 12.8002 15.6669 13.1669 15.6669C13.5335 15.6669 13.9002 15.5002 14.2002 15.2002L16.3335 15.8335C17.2335 16.1335 17.8335 16.9002 17.8335 17.8002Z" stroke="#1F2130" stroke-width="1.3" stroke-miterlimit="10" stroke-linecap="round" stroke-linejoin="round"/>
<path d="M22.3 12.6001H27.4667" stroke="#1F2130" stroke-width="1.3" stroke-miterlimit="10" stroke-linecap="round" stroke-linejoin="round"/>
<path d="M22.3 16.3667H27.4667" stroke="#1F2130" stroke-width="1.3" stroke-miterlimit="10" stroke-linecap="round" stroke-linejoin="round"/>
<path d="M22.3 20.4004H27.4667" stroke="#1F2130" stroke-width="1.3" stroke-miterlimit="10" stroke-linecap="round" stroke-linejoin="round"/>
<path d="M8.76685 27.9004H22.8669" stroke="#1F2130" stroke-width="1.3" stroke-miterlimit="10" stroke-linecap="round" stroke-linejoin="round"/>
<path d="M8.76685 32.4004H22.8669" stroke="#1F2130" stroke-width="1.3" stroke-miterlimit="10" stroke-linecap="round" stroke-linejoin="round"/>
<path d="M8.76685 36.667H22.8669" stroke="#1F2130" stroke-width="1.3" stroke-miterlimit="10" stroke-linecap="round" stroke-linejoin="round"/>
<path d="M23.9667 3.2V1H11.8334V3.2" stroke="#1F2130" stroke-width="1.3" stroke-miterlimit="10" stroke-linecap="round" stroke-linejoin="round"/>
<path d="M11.8334 3.2002C11.8334 5.5002 13.7001 7.33355 15.9667 7.33355H19.8001C22.1001 7.33355 23.9334 5.46687 23.9334 3.2002" stroke="#1F2130" stroke-width="1.3" stroke-miterlimit="10" stroke-linecap="round" stroke-linejoin="round"/>
<path d="M15.9001 4H20.0335" stroke="#1F2130" stroke-width="1.3" stroke-miterlimit="10" stroke-linecap="round" stroke-linejoin="round"/>
<path d="M8.56669 1H1V45.3334H34.5667V1H26.4667" stroke="#1F2130" stroke-width="1.3" stroke-miterlimit="10" stroke-linecap="round" stroke-linejoin="round"/>
<path d="M8.40005 4H4.80005V41.7668H31.0668V4H26.9668" stroke="#1F2130" stroke-width="1.3" stroke-miterlimit="10" stroke-linecap="round" stroke-linejoin="round"/>
<path d="M42.6669 20.167H38.8669V39.8004H42.6669V20.167Z" stroke="#1F2130" stroke-width="1.3" stroke-miterlimit="10" stroke-linecap="round" stroke-linejoin="round"/>
<path d="M38.8668 20.1665L40.7668 14.2998L42.6668 20.1665" stroke="#1F2130" stroke-width="1.3" stroke-miterlimit="10" stroke-linecap="round" stroke-linejoin="round"/>
<path d="M38.8669 39.7998V42.0998C38.8669 43.1332 39.7003 43.9998 40.767 43.9998C41.8003 43.9998 42.6669 43.1665 42.6669 42.0998V39.7998" stroke="#1F2130" stroke-width="1.3" stroke-miterlimit="10" stroke-linecap="round" stroke-linejoin="round"/>
</svg>
