<svg width="36" height="46" viewBox="0 0 36 46" fill="none" xmlns="http://www.w3.org/2000/svg">
<path d="M1 17L9 18H17H26L34 17V22L25.5 22.5L17 23H8L1 21.5V17Z" fill="white"/>
<path d="M3.99995 7L17.4999 4L30.9999 7L28.4999 18.5L33.5 34L17.4999 36.5L2 34L6.49995 19.5L3.99995 7Z" fill="white"/>
<path d="M3.09998 29.9669C3.53331 28.8003 3.89998 28.1669 4.83332 25.4336" stroke="#1F2130" stroke-width="1.3" stroke-miterlimit="10" stroke-linecap="round" stroke-linejoin="round"/>
<path d="M33.3001 34.0335C29.3 35.1335 23.7667 36.2001 17.1334 36.1335C11 36.0668 5.86667 35.0668 2.03333 34.0335C2.19999 33.0335 2.46667 31.9335 2.83333 30.7335C2.93334 30.4335 3 30.2001 3.1 29.9668C6.66667 30.9335 11.4667 31.8668 17.1667 31.9335C23.3334 32.0001 28.5334 31.0001 32.2667 29.9668C32.3334 30.1335 32.3667 30.3001 32.4334 30.5001C32.8667 31.7668 33.1334 32.9335 33.3001 34.0335Z" stroke="#1F2130" stroke-width="1.3" stroke-miterlimit="10" stroke-linecap="round" stroke-linejoin="round"/>
<path d="M30.4667 25.2002C31.4667 28.1002 31.8333 28.6335 32.3 29.9669" stroke="#1F2130" stroke-width="1.3" stroke-miterlimit="10" stroke-linecap="round" stroke-linejoin="round"/>
<path d="M1.99999 44.7334C1.66665 42.7 1.49997 40.4 1.63331 37.8667C1.69997 36.8333 1.76664 35.5333 2.03331 34C5.86665 35.0333 11 36.0667 17.1333 36.1C23.7667 36.1667 29.3 35.1 33.3 34C33.5334 35.3667 33.6 36.6 33.6334 37.6333C33.8 40.2 33.6334 42.5667 33.3334 44.7" stroke="#1F2130" stroke-width="1.3" stroke-miterlimit="10" stroke-linecap="round" stroke-linejoin="round"/>
<path d="M2.7666 1C2.79993 1.3 2.79994 1.56667 2.83327 1.83333C2.83327 2 2.93326 2.8 3.13326 3.83334C3.49993 5.86668 4.03328 7.33335 4.23328 7.90002C4.73328 9.30002 5.3666 11.4334 5.9666 14.6" stroke="#1F2130" stroke-width="1.3" stroke-miterlimit="10" stroke-linecap="round" stroke-linejoin="round"/>
<path d="M29.5334 14.1C30.0334 11.2333 30.6001 9.23335 31.0668 7.90002C31.2668 7.30002 31.8335 5.76666 32.2335 3.63333C32.4335 2.56666 32.5001 1.8 32.5001 1.6C32.5001 1.4 32.5335 1.23333 32.5335 1" stroke="#1F2130" stroke-width="1.3" stroke-miterlimit="10" stroke-linecap="round" stroke-linejoin="round"/>
<path d="M4.03333 7.13309C6.83333 5.96642 11.7667 4.33309 18.1 4.43309C23.8667 4.53309 28.3667 5.99975 31.0667 7.13309" stroke="#1F2130" stroke-width="1.3" stroke-miterlimit="10" stroke-linecap="round" stroke-linejoin="round"/>
<path d="M33.0001 15.7666C33.8334 15.9666 34.3334 16.1999 34.3334 16.4333C34.3334 16.6666 33.8667 16.8999 33.0001 17.0999C30.4667 17.6999 24.5667 18.1333 17.6667 18.1333C10.8667 18.1333 5.03334 17.7333 2.43333 17.1333C1.53333 16.9333 1 16.6999 1 16.4666C1 16.2333 1.5 15.9999 2.43333 15.7999" stroke="#1F2130" stroke-width="1.3" stroke-miterlimit="10" stroke-linecap="round" stroke-linejoin="round"/>
<path d="M1.03308 21.4004C1.03308 21.5671 1.33308 21.767 1.86642 21.9337C4.03309 22.6004 10.2998 23.1004 17.6998 23.1004C25.1998 23.1004 31.5331 22.6004 33.6331 21.9337C34.0998 21.767 34.3665 21.6004 34.3665 21.4337" stroke="#1F2130" stroke-width="1.3" stroke-miterlimit="10" stroke-linecap="round" stroke-linejoin="round"/>
<path d="M1.03308 16.3999V21.3999" stroke="#1F2130" stroke-width="1.3" stroke-miterlimit="10" stroke-linecap="round" stroke-linejoin="round"/>
<path d="M34.2998 16.3999V21.3999" stroke="#1F2130" stroke-width="1.3" stroke-miterlimit="10" stroke-linecap="round" stroke-linejoin="round"/>
<path d="M6.26636 19.5667V17.6333" stroke="#1F2130" stroke-width="1.3" stroke-miterlimit="10" stroke-linecap="round" stroke-linejoin="round"/>
<path d="M11.6665 20.0668V17.9668" stroke="#1F2130" stroke-width="1.3" stroke-miterlimit="10" stroke-linecap="round" stroke-linejoin="round"/>
<path d="M17.0665 20.0664V18.0664" stroke="#1F2130" stroke-width="1.3" stroke-miterlimit="10" stroke-linecap="round" stroke-linejoin="round"/>
<path d="M22.4664 19.8333V18" stroke="#1F2130" stroke-width="1.3" stroke-miterlimit="10" stroke-linecap="round" stroke-linejoin="round"/>
<path d="M27.8666 19.3667V17.7334" stroke="#1F2130" stroke-width="1.3" stroke-miterlimit="10" stroke-linecap="round" stroke-linejoin="round"/>
</svg>
