<svg width="113" height="90" viewBox="0 0 113 90" fill="none" xmlns="http://www.w3.org/2000/svg">
<ellipse cx="58" cy="44.5" rx="31" ry="31.5" fill="white"/>
<path d="M32.667 62.4439C29.1337 57.3772 27.067 51.2439 27.067 44.6439C27.067 27.5105 41.0004 13.5771 58.1337 13.5771" stroke="#1F2130" stroke-width="2.6" stroke-miterlimit="10" stroke-linecap="round" stroke-linejoin="round"/>
<path d="M83.6004 26.9775C87.0671 31.9776 89.0671 38.0442 89.0671 44.5776C89.0671 61.711 75.1337 75.6443 58.0004 75.6443" stroke="#1F2130" stroke-width="2.6" stroke-miterlimit="10" stroke-linecap="round" stroke-linejoin="round"/>
<path d="M45.3338 28.9108C45.1338 29.5108 45.0672 30.1108 45.2672 30.7108C45.5338 31.3774 46.1338 31.9108 46.6671 32.4441C47.4005 33.1108 48.0004 33.9775 48.2004 34.9108C48.6671 36.7775 47.2672 38.5108 45.6005 39.3108C43.7338 40.1775 41.7338 39.7775 39.8004 40.3108C37.6004 40.9108 36.0005 43.3108 36.6671 45.5775C37.2005 47.3108 38.8005 48.5108 40.6671 48.3775C43.0005 48.1775 43.8004 45.7108 46.5338 46.2442C47.4004 46.4442 48.2005 46.9775 48.4671 47.7775C48.6671 48.5108 48.4671 49.3108 48.1338 49.9775C47.7338 50.6442 47.2671 51.2442 46.8671 51.9109C44.4671 55.8442 46.9338 60.5108 50.6005 62.5108C56.0005 65.4442 64.4005 65.9108 69.1338 61.5108C71.0672 59.7108 72.3339 57.3775 73.6672 55.1775C75.5339 52.0441 77.8005 48.7775 78.8672 45.1774C80.6005 39.2441 76.4005 33.8441 71.1338 31.6441C69.4005 30.9108 67.6005 30.2441 66.1338 29.0441C64.4672 27.7108 62.7338 26.5108 60.8005 25.5775C56.3338 23.5108 49.5338 23.7774 46.0005 27.7108C45.7338 28.1774 45.5338 28.5108 45.3338 28.9108Z" fill="white" stroke="#1F2130" stroke-width="2.6" stroke-miterlimit="10" stroke-linecap="round" stroke-linejoin="round"/>
<path d="M95.5147 51.7786C99.4902 31.1334 85.9768 11.1742 65.3315 7.19859C44.6863 3.22296 24.7272 16.7364 20.7517 37.3816C16.7761 58.0269 30.2896 77.9861 50.9349 81.9617C71.5801 85.9373 91.5392 72.4239 95.5147 51.7786Z" stroke="#1F2130" stroke-width="2.6" stroke-miterlimit="10" stroke-linecap="round" stroke-linejoin="round"/>
<path d="M68.9338 43.3774C68.9338 47.5774 65.5338 50.9774 61.3338 50.9774C57.1338 50.9774 53.7338 47.5774 53.7338 43.3774C53.7338 39.1774 57.1338 35.7773 61.3338 35.7773C65.5338 35.7773 68.9338 39.1774 68.9338 43.3774Z" stroke="#1F2130" stroke-width="2.6" stroke-miterlimit="10" stroke-linecap="round" stroke-linejoin="round"/>
<path d="M2 6.77734L2.19995 23.1774C2.26662 25.9774 4.80001 28.244 8.00001 28.1774H10C13.1334 28.1107 15.6667 25.8441 15.6667 23.0441L15.4667 6.91073" stroke="#1F2130" stroke-width="2.6" stroke-miterlimit="10" stroke-linecap="round" stroke-linejoin="round"/>
<path d="M6.8667 19.5105L6.7334 7.31055" stroke="#1F2130" stroke-width="2.6" stroke-miterlimit="10" stroke-linecap="round" stroke-linejoin="round"/>
<path d="M10.9998 19.4442L10.8665 6.97754" stroke="#1F2130" stroke-width="2.6" stroke-miterlimit="10" stroke-linecap="round" stroke-linejoin="round"/>
<path d="M8.86646 28.1777V43.7778" stroke="#1F2130" stroke-width="2.6" stroke-miterlimit="10" stroke-linecap="round" stroke-linejoin="round"/>
<path d="M8.86653 43.7773C10.9999 43.7773 12.7332 45.5107 12.7332 47.6441V85.2442H5.06656V47.6441C4.99989 45.5107 6.7332 43.7773 8.86653 43.7773Z" fill="white" stroke="#1F2130" stroke-width="2.6" stroke-miterlimit="10" stroke-linecap="round" stroke-linejoin="round"/>
<path d="M111.267 8.51123C111.2 10.5112 110.867 27.0446 110.4 49.778H105.533C105.333 48.8447 105.133 47.578 104.867 45.978C104.467 43.7114 103.4 37.0446 103.4 29.778C103.334 15.9779 107 7.91127 109 6.97794C109.267 6.8446 110.134 6.44457 110.734 6.77791C111.334 7.17791 111.267 8.17789 111.267 8.51123Z" fill="white" stroke="#1F2130" stroke-width="2.6" stroke-miterlimit="10" stroke-linecap="round" stroke-linejoin="round"/>
<path d="M105.533 49.7773V83.9775C105.533 85.3108 106.6 86.3774 107.933 86.3774C109.267 86.3774 110.333 85.3108 110.333 83.9775V49.7773" fill="white"/>
<path d="M105.533 49.7773V83.9775C105.533 85.3108 106.6 86.3774 107.933 86.3774C109.267 86.3774 110.333 85.3108 110.333 83.9775V49.7773" stroke="#1F2130" stroke-width="2.6" stroke-miterlimit="10" stroke-linecap="round" stroke-linejoin="round"/>
</svg>
