<svg width="111" height="100" viewBox="0 0 111 100" fill="none" xmlns="http://www.w3.org/2000/svg">
<path d="M20 30H42L39.5 57H22.5L20 30Z" fill="white"/>
<path d="M35 34H52.5L50.9545 55H37.0455L35 34Z" fill="white"/>
<path d="M68 21H87.5V51L68.5 51.5L68 21Z" fill="white"/>
<rect x="6" y="6" width="99" height="58" fill="white"/>
<path d="M8.31053 67.5323H108.733V2H2V67.5323H8.31053Z" stroke="#1F2130" stroke-width="2.6" stroke-miterlimit="10" stroke-linecap="round" stroke-linejoin="round"/>
<path d="M2.00037 62.5566V84.0974H34.7665H108.733V62.5566" stroke="#1F2130" stroke-width="2.6" stroke-miterlimit="10" stroke-linecap="round" stroke-linejoin="round"/>
<path d="M47.0236 98.2356V84.0977" stroke="#1F2130" stroke-width="2.6" stroke-miterlimit="10" stroke-linecap="round" stroke-linejoin="round"/>
<path d="M63.7103 98.2356V84.0977" stroke="#1F2130" stroke-width="2.6" stroke-miterlimit="10" stroke-linecap="round" stroke-linejoin="round"/>
<path d="M30.2153 98.2354H81.549" stroke="#1F2130" stroke-width="2.6" stroke-miterlimit="10" stroke-linecap="round" stroke-linejoin="round"/>
<path d="M96.9613 76.4517C96.9613 77.8472 95.8691 78.9394 94.4735 78.9394H92.6531C91.2575 78.9394 90.1654 77.8472 90.1654 76.4517V75.1167C90.1654 73.7211 91.2575 72.6289 92.6531 72.6289H94.0487" stroke="#1F2130" stroke-width="2.6" stroke-miterlimit="10" stroke-linecap="round" stroke-linejoin="round"/>
<path d="M84.7653 75.7852H82.8236" stroke="#1F2130" stroke-width="2.6" stroke-miterlimit="10" stroke-linecap="round" stroke-linejoin="round"/>
<path d="M77.1197 75.7852H75.1173" stroke="#1F2130" stroke-width="2.6" stroke-miterlimit="10" stroke-linecap="round" stroke-linejoin="round"/>
<path d="M68.6248 75.7852H66.6831" stroke="#1F2130" stroke-width="2.6" stroke-miterlimit="10" stroke-linecap="round" stroke-linejoin="round"/>
<path d="M20.2034 14.7422H52.9695" stroke="#1F2130" stroke-width="2.6" stroke-miterlimit="10" stroke-linecap="round" stroke-linejoin="round"/>
<path d="M20.2034 21.1133H39.317" stroke="#1F2130" stroke-width="2.6" stroke-miterlimit="10" stroke-linecap="round" stroke-linejoin="round"/>
<path d="M39.5119 29.3052C40.9794 29.3052 42.1405 30.5338 42.0416 31.9822L40.4499 55.3114C40.3744 56.4181 39.5748 57.3435 38.4734 57.5514C36.5159 57.9209 33.3939 58.4306 31.0681 58.4306C28.7459 58.4306 25.6297 57.9224 23.6717 57.553C22.5661 57.3445 21.765 56.4133 21.6943 55.3021L20.2085 31.971C20.1166 30.5266 21.276 29.3052 22.739 29.3052H31.1255" stroke="#1F2130" stroke-width="2.6" stroke-linecap="round"/>
<path d="M40.6823 55.245C40.6823 55.245 42.0832 55.7001 43.8249 55.7001C45.5692 55.7001 47.9107 55.3177 49.3789 55.0406C50.2049 54.8847 50.8046 54.1906 50.8613 53.3606L51.0105 51.1735M42.0475 33.856H50.1578C51.2584 33.856 52.1292 34.7774 52.055 35.8637L51.4582 44.6122L51.3089 46.7993" stroke="#1F2130" stroke-width="2.6" stroke-linecap="round"/>
<path d="M87.5561 40.1134V36.1314V23.2034C87.5561 21.5465 86.2129 20.2034 84.5561 20.2034H71.4425C69.7856 20.2034 68.4425 21.5465 68.4425 23.2034V49.0593C68.4425 50.7162 69.7856 52.0593 71.4425 52.0593H84.5561C86.2129 52.0593 87.5561 50.7162 87.5561 49.0593V48.0774" stroke="#1F2130" stroke-width="2.6" stroke-linecap="round"/>
<path d="M72.9933 28.395H83.0052" stroke="#1F2130" stroke-width="2.6" stroke-linecap="round"/>
<path d="M72.9933 34.7661H83.0052" stroke="#1F2130" stroke-width="2.6" stroke-linecap="round"/>
<path d="M72.9933 41.1375H83.0052" stroke="#1F2130" stroke-width="2.6" stroke-linecap="round"/>
</svg>
