<svg width="94" height="91" viewBox="0 0 94 91" fill="none" xmlns="http://www.w3.org/2000/svg">
<rect x="6" y="6" width="51" height="79" fill="white"/>
<path d="M53.6002 81.4669C54.1335 82.6669 55.4002 85.6002 58.2669 87.6002C59.3335 88.3335 60.1335 88.6669 60.3335 88.7336C62.6668 89.6002 65.3335 89.4002 67.6002 88.3335C68.5335 87.8668 69.6002 87.8668 70.5335 88.3335C72.8002 89.4002 75.4669 89.6002 77.8002 88.7336C78.0002 88.6669 78.8668 88.3335 79.8668 87.6002C82.7335 85.6002 84.0002 82.6669 84.5335 81.4669C89.8668 69.2669 92.5335 66.4669 92.2001 59.8002C92.1335 58.7336 92.0002 57.8669 91.8002 56.6002C90.8668 51.2669 86.3335 46.8669 80.4669 46.0002C77.7335 45.6002 75.0668 45.9336 72.8668 47.0669H72.8002C71.6002 47.6669 70.4002 48.0003 69.1335 48.0669C67.8669 48.0003 66.6002 47.6669 65.4669 47.0669H65.4001C63.2001 45.9336 60.5336 45.6002 57.8002 46.0002C51.9336 46.8669 47.4002 51.2669 46.4669 56.6002C46.2669 57.8002 46.0668 58.6669 46.0668 59.8002C45.6668 66.5336 48.3335 69.2669 53.6002 81.4669Z" fill="white" stroke="#1F2130" stroke-width="2.6" stroke-miterlimit="10" stroke-linecap="round" stroke-linejoin="round"/>
<path d="M21.6666 17.7337V9.40039H24.2667C25.1333 9.40039 25.8666 9.73372 26.4 10.4004C27 11.0671 27.2667 11.867 27.2667 12.9337V14.3336C27.2667 15.3336 27 16.2003 26.4 16.867C25.8 17.5337 25.1333 17.867 24.2667 17.867H21.6666V17.7337ZM23.2666 10.667V16.467H24.2C24.6 16.467 24.9333 16.267 25.2 15.867C25.4667 15.467 25.6 14.9337 25.6 14.267V12.867C25.6 12.2004 25.4667 11.667 25.2 11.267C24.9333 10.867 24.6 10.667 24.2 10.667H23.2666Z" fill="#1F2130"/>
<path d="M30.0665 17.7337H28.4666V9.40039H30.0665V17.7337Z" fill="#1F2130"/>
<path d="M35.5999 14.067H33.0665V16.467H36.1332V17.7337H31.4666V9.40039H36.1332V10.667H33.0665V12.8004H35.5999V14.067Z" fill="#1F2130"/>
<path d="M42.1999 10.667H40.2665V17.7337H38.6665V10.667H36.7332V9.40039H42.1999V10.667Z" fill="#1F2130"/>
<path d="M51.6001 89.3333H2V2H61.3334V42" stroke="#1F2130" stroke-width="2.6" stroke-miterlimit="10" stroke-linecap="round" stroke-linejoin="round"/>
<path d="M65.3334 7.06738L79.5333 8.8007L77 29.7341" stroke="#1F2130" stroke-width="2.6" stroke-miterlimit="10" stroke-linecap="round" stroke-linejoin="round"/>
<path d="M18.2664 28.4669V32.2668H12.1997V26.2002H15.1997" stroke="#1F2130" stroke-width="2.6" stroke-miterlimit="10" stroke-linecap="round" stroke-linejoin="round"/>
<path d="M18.2661 32.2666H40.2661" stroke="#1F2130" stroke-width="2.6" stroke-miterlimit="10" stroke-linecap="round" stroke-linejoin="round"/>
<path d="M18.2664 42.667V46.467H12.1997V40.4004H15.1997" stroke="#1F2130" stroke-width="2.6" stroke-miterlimit="10" stroke-linecap="round" stroke-linejoin="round"/>
<path d="M18.2661 46.4668H40.7328" stroke="#1F2130" stroke-width="2.6" stroke-miterlimit="10" stroke-linecap="round" stroke-linejoin="round"/>
<path d="M18.2664 56.867V60.6669H12.1997V54.667H15.1997" stroke="#1F2130" stroke-width="2.6" stroke-miterlimit="10" stroke-linecap="round" stroke-linejoin="round"/>
<path d="M18.2661 60.667H40.2661" stroke="#1F2130" stroke-width="2.6" stroke-miterlimit="10" stroke-linecap="round" stroke-linejoin="round"/>
<path d="M18.2664 71.1339V74.9338H12.1997V68.8672H15.1997" stroke="#1F2130" stroke-width="2.6" stroke-miterlimit="10" stroke-linecap="round" stroke-linejoin="round"/>
<path d="M18.2661 74.9336H40.2661" stroke="#1F2130" stroke-width="2.6" stroke-miterlimit="10" stroke-linecap="round" stroke-linejoin="round"/>
<path d="M73.9999 67.4007C74.1999 67.334 74.3333 67.334 74.5333 67.334C74.8666 67.4007 75.1332 67.6673 75.2666 68.0007C75.3332 68.334 75.2666 68.6007 75.1333 68.9341C74.8666 69.5341 74.5332 70.0008 74.0666 70.4675L73.6666 69.9341" stroke="#1F2130" stroke-width="2.6" stroke-miterlimit="10" stroke-linecap="round" stroke-linejoin="round"/>
<path d="M64.2 67.4007C64 67.334 63.8666 67.334 63.6666 67.334C63.3333 67.4007 63.0667 67.6673 62.9334 68.0007C62.8667 68.334 62.9334 68.6007 63.0667 68.9341C63.3333 69.5341 63.6667 70.0008 64.1333 70.4675L64.5333 69.9341" stroke="#1F2130" stroke-width="2.6" stroke-miterlimit="10" stroke-linecap="round" stroke-linejoin="round"/>
<path d="M70.9999 40.4001C70.9999 40.4001 73.9999 30.5334 83.9333 34.8667C83.9333 34.8667 91.4666 38.8 92.2 38.8667C92.2666 39 88.6 40.8667 85.2 41.2C81.3333 41.5334 80.4666 39.4667 76.9999 39.6667C75.2666 39.7333 72.8666 40.4 69.9999 43C70.3332 42.1333 70.6665 41.2667 70.9999 40.4001Z" stroke="#1F2130" stroke-width="2.6" stroke-miterlimit="10" stroke-linecap="round" stroke-linejoin="round"/>
<path d="M69.9999 43C69.9999 43 68.9334 45.4 69.4667 48" stroke="#1F2130" stroke-width="2.6" stroke-miterlimit="10" stroke-linecap="round" stroke-linejoin="round"/>
<path d="M62.8665 57.0002C58.6665 57.4002 55.6665 61.4669 56.1998 66.0002C56.2665 66.6002 56.3332 67.2003 56.4665 67.8669C56.9332 70.5336 57.7998 72.8669 58.6665 74.7336C59.4665 76.4669 60.9331 77.9335 62.7331 78.6669C64.5997 79.4002 66.5331 78.8669 68.3997 78.6669C70.733 78.4002 73.333 79.5335 75.533 78.6002C77.333 77.8669 78.733 76.4669 79.533 74.6669C80.3997 72.7335 81.1996 70.4669 81.7329 67.8003C81.8663 67.2003 81.9329 66.5336 81.9996 65.9336C82.1329 64.9336 82.1996 62.2003 80.3996 59.8669C78.5996 57.6003 76.0663 57.0669 75.333 56.9336" stroke="#1F2130" stroke-width="2.6" stroke-miterlimit="10" stroke-linecap="round" stroke-linejoin="round"/>
</svg>
